# xmcd
#
# Track frame offsets: 
#        182
#        16322
#        32042
#        53790
#        65655
#        83280
#        100497
#        113957
#        129220
#        141570
#        158487
#        169210
#        181920
#
# Disc length: 2702 seconds
#
# Revision: 5
# Processed by: cddbd v1.5.2PL0 Copyright (c) Steve Scherf et al.
# Submitted via: ExactAudioCopy v0.99pb5
#
DISCID=a60a8c0d
DTITLE=Nitty Gritty Dirt Band - Greatest Hits
DYEAR=1990
DGENRE=Country
TTITLE0=Mr. Bojangles
TTITLE1=An American Dream [Feat. Linda Ronstadt]
TTITLE2=Will The Circle Be Unbroken
TTITLE3=House At Pooh Corner
TTITLE4=Make A Little Magic
TTITLE5=All I Have To Do Is Dream
TTITLE6=Grand Ole Opry Song [Feat. Jimmy Martin]
TTITLE7=Jambalaya
TTITLE8=Battle Of New Orleans
TTITLE9=I Saw The Light [Feat. Roy Acuff]
TTITLE10=Buy For Me The Rain
TTITLE11=Some Of Shelly's Blues
TTITLE12=Fire In The Sky
EXTD=
EXTT0=
EXTT1=
EXTT2=
EXTT3=
EXTT4=
EXTT5=
EXTT6=
EXTT7=
EXTT8=
EXTT9=
EXTT10=
EXTT11=
EXTT12=
PLAYORDER=
